<svg xmlns="http://www.w3.org/2000/svg" viewBox="0 0 64 64">
<defs>
<linearGradient id="g" x1="0" y1="0" x2="1" y2="1">
<stop offset="0" stop-color="#3b82f6"/>
<stop offset="1" stop-color="#60a5fa"/>
 </linearGradient>
</defs>
<rect width="64" height="64" rx="14" fill="url(#g)"/>
<g transform="translate(-1.2673267 0)"><g transform="scale(0.0633663)"><path d="M996 990h-328c76 -23 145 -63 206 -121zM1010 646v329l-119 -122c56 -59 96 -128 119 -207zM860 855c-88 86 -194 131 -319 135l138 -315zM1010 505c0 129 -45 241 -135 334l-188 -191l202 -463c81 92 121 199 121 320zM1010 250v114c-18 -61 -43 -112 -74 -153c21 23 45 36 74 39zM525 990c-129 0 -241 -45 -334 -135l163 -163l98 259c35 2 60 15 73 39zM588 583l-108 262l-77 -202l122 -122zM385 990h-330l121 -120c59 57 129 97 209 120zM628 491l-31 69l-56 -55l14 -14h73zM1010 35v200c-49 -7 -87 -51 -87 -100c0 -7 0 -12 1 -16zM927 199l-28 -33l11 -24v6c0 17 6 34 17 51zM683 366l-35 77h-44zM995 20l-63 64c11 -33 32 -54 63 -64zM509 505l-114 115l-49 -129h149zM160 854l-120 121v-328c23 79 63 148 120 207zM793 99c-7 4 -14 6 -23 6c-24 0 -38 -14 -42 -41c21 9 43 21 65 35zM813 63c0 7 -2 15 -6 23c-24 -16 -49 -30 -75 -42c7 -16 20 -24 38 -24c24 0 43 19 43 43zM735 20c-7 7 -12 13 -15 20c-11 -5 -29 -12 -53 -20h68zM346 670l-171 170c-90 -94 -135 -206 -135 -335c0 -123 40 -230 121 -320zM448 443h-121l-77 -199zM381 20c-44 16 -76 30 -96 41c0 -16 -7 -30 -20 -41h116zM159 157c-56 59 -96 128 -119 207v-128c52 -4 95 -45 103 -96zM271 68c-17 10 -34 22 -52 36c-21 -6 -32 -20 -32 -41c0 -24 19 -43 42 -43c28 0 42 16 42 48zM130 125c-1 49 -41 91 -90 96v-186zM125 88l-64 -63c32 11 53 32 64 63zM479 443c-52 -49 -104 -99 -155 -148c-76 -77 -114 -129 -114 -155v-4l22 -18c20 0 36 -10 48 -31c75 -45 157 -67 245 -67c65 0 128 13 191 39l-1 4c0 31 26 55 55 55c17 0 28 -4 34 -11c-15 57 -46 119 -93 186c-46 67 -93 117 -142 150h-90z" fill="#fff"/></g></g>
</svg>

